<svg xmlns="http://www.w3.org/2000/svg" viewBox="0 0 898.61 138.14"><defs><style>.cls-1{fill:#0070cc;}.cls-2{stroke:#000;stroke-linecap:round;stroke-miterlimit:10;stroke-width:5px;}</style></defs><title>Asset 1</title><g id="Layer_2" data-name="Layer 2"><g id="Layer_1-2" data-name="Layer 1"><path d="M184,17.3l13.06-.74q12.56-.69,20.23,4.26t8.18,15.45q.78,15.54-13.8,20.93,17.92,4.09,18.61,18.66c.82,16.87-9.37,25.8-30.56,27q-19.26,1.07-38.53,2.28l-.66-10.63q3-1.29,9-3.62-1.77-29-3.55-58-4.76-1.56-9.53-3.09-.31-5.07-.64-10.14Q170,18.43,184,17.3Zm.83,14.42q.6,10.38,1.19,20.77l7.17-.41Q207.06,51.3,206.46,40q-.26-4.65-3.29-6.87a11.66,11.66,0,0,0-7.76-2C191.9,31.32,188.38,31.51,184.87,31.72ZM194,64.91l-7.15.41q.69,11.91,1.37,23.82l10.18-.57q6.38-.36,9.6-3.47a10.18,10.18,0,0,0,3-8.25q-.36-6.6-4.46-9.5T194,64.91Z"/><path d="M299.79,68.85q-20.43.93-40.85,2,.82,7.56,5,11.54a13.62,13.62,0,0,0,10.43,3.73A37.16,37.16,0,0,0,284,84.33a41.71,41.71,0,0,0,7.86-3.18l2.9-1.58q2.82,4.8,5.63,9.59-1.31,1.16-3.69,3c-1.6,1.21-4.81,2.85-9.63,5a39.58,39.58,0,0,1-14.21,3.44q-15.54.64-24.07-7.58t-9.31-24c-.51-10.83,2-19.59,7.56-26.26S260.56,32.43,270.9,32q13.64-.55,21.24,6.89t8.06,20.77C300.06,62.72,299.92,65.79,299.79,68.85ZM270.25,46.36a10.67,10.67,0,0,0-8.08,3.77,16.32,16.32,0,0,0-3.49,9.34q11.1-.48,22.21-.92Q280.4,46,270.25,46.36Z"/><path d="M379.18,95.12q-12.85.7-25.7,1.46-.63-3.22-1.27-6.46a25.37,25.37,0,0,1-18.28,8.23q-12.6.38-19.13-8t-7.09-23.89q-.6-17.35,7.94-26.9t25.93-10a27.17,27.17,0,0,1,8.09,1q-.21-7.77-.41-15.54l-10-2.17L339,3.07q14.13-.88,28.27-1.7L369.1,83.1,379,85.33Q379.07,90.23,379.18,95.12Zm-28.3-18.55q-.42-15.66-.83-31.32-3.14-1.76-9.69-1.57-14.24.41-13.58,21.21.6,19.33,12.37,19a12.63,12.63,0,0,0,6.4-2,14,14,0,0,0,4.14-3.6Z"/><path d="M451.2,94.12q-12.12.51-24.24,1.08-1.15-4-2.3-7.93c-.73.67-1.7,1.51-2.92,2.55a40.35,40.35,0,0,1-7,4.19,22.45,22.45,0,0,1-9.82,2.72c-6,.09-10.64-1.49-14.05-4.78s-5.18-8-5.3-14.09c-.27-13.46,9.46-20.41,29.21-20.69l8.64-.11-.09-6.73q-.1-9.18-9.64-9.06a30.92,30.92,0,0,0-5.56.58,27,27,0,0,0-4.07,1l-1.23.39c-.57,2.66-1.15,5.32-1.72,8l-11.11.2q-.61-9.06-1.21-18.1,14.9-5.17,26.83-5.33,14.13-.2,20,5.21t6,18.73l.27,30.23c3.07.7,6.15,1.41,9.22,2.13C451.15,87.59,451.18,90.85,451.2,94.12ZM403.25,75.7q.11,7.35,7.36,7.23a13,13,0,0,0,6.17-1.86,22.45,22.45,0,0,0,5.05-3.68l1.82-1.73c0-2.73-.06-5.47-.1-8.2l-7,.09q-7.14.11-10.25,2A6.53,6.53,0,0,0,403.25,75.7Z"/><path d="M456.4,1.07Q470.54.5,484.7,0l0,35.86c6.76-5.55,13.72-8.32,20.83-8.29q9.3,0,14.23,5.87t4.85,16.25q-.12,16.22-.23,32.43L533,85.25,532.89,95q-16.53-.15-33.06-.18c0-3.26,0-6.53,0-9.79l6.39-2.92q0-14.87.1-29.74,0-9.78-8.13-9.81a14.36,14.36,0,0,0-6.43,1.64,25,25,0,0,0-5.19,3.24l-1.86,1.6q0,16.45,0,32.92,3.25,1.52,6.51,3.06c0,3.26,0,6.52,0,9.79q-17.14,0-34.29.09l-.06-9.79L466.71,82q-.15-34.4-.28-68.78l-10-2.4Z"/><path d="M574,28.24q15,.24,23,9.06t7.57,24.58q-.36,16.4-9.47,25.75t-24,9.11c-20.8-.33-31.1-11.62-30.88-34.06q.15-16.41,9.29-25.54T574,28.24Zm-.85,14.06q-7.05-.11-10.4,4.37t-3.48,15.62q-.15,10.53,2.86,15.4t9.75,5q6.75.12,10-4.6t3.49-16q.18-9.91-2.75-14.8T573.19,42.3Z"/><path d="M613.37,2.47q14.4-.15,28.82-.22-1.2,41-2.39,82l11.56,3.41q-.15,4.89-.31,9.79-19.95-.63-39.91-1.1.12-4.91.23-9.79l9.89-2.82Q622.15,49.32,623,15l-9.89-2.7Z"/><path d="M658.3,32.5q14.09,0,28.18,0l-2,53.19,8.47,3.39-.39,9.79q-18.18-.72-36.36-1.31.16-4.89.32-9.78,5-1.38,9.92-2.73.69-20,1.37-40L658,42.28Q658.15,37.39,658.3,32.5Zm8.28-20.91A10.46,10.46,0,0,1,670,3.69,10.61,10.61,0,0,1,677.68,1q10.47.39,10.05,11.4a10.66,10.66,0,0,1-3.47,8,10.3,10.3,0,0,1-7.38,2.73c-3.39-.12-6-1.17-7.78-3.15S666.46,15.18,666.58,11.59Z"/><path d="M752.41,82,758,92.68q-12.43,9.76-26.84,9.09-15.06-.7-23.06-9.85t-7.4-24.81q.66-16.38,10-25.43t25.5-8.29a54.1,54.1,0,0,1,10.11,1.53,60.74,60.74,0,0,1,8.45,2.57l2.91,1.25q-.81,9.94-1.64,19.89L745,58.07q-.65-4.44-1.3-8.88a32.62,32.62,0,0,0-8.48-1.39q-6.91-.33-10.9,4.09T719.9,65.48q-.45,10.39,3.17,16.07t11.22,6a23.88,23.88,0,0,0,4.68-.21,22.58,22.58,0,0,0,4.36-1.07c1.42-.5,2.52-.94,3.32-1.31s1.9-.92,3.29-1.67Z"/><path d="M776.21,81.4l.51,8.6a35.29,35.29,0,0,0,10,1.79c6.45.38,9.82-1.63,10.08-6,.11-1.87-.9-3.55-3-5a35.75,35.75,0,0,0-7.91-3.95,101.69,101.69,0,0,1-9.4-4,20.46,20.46,0,0,1-7.79-6.62,15.73,15.73,0,0,1-2.79-10.32q.57-10.76,8.14-15.43t18.5-4a67.87,67.87,0,0,1,10.66,1.55q5.7,1.26,9,2.33l3.16,1.17q-.63,6.09-1.63,18.29L802.82,59,801.44,51a23.37,23.37,0,0,0-8.08-1.71,10,10,0,0,0-6.15,1.3A5.38,5.38,0,0,0,784.73,55c-.11,1.87.93,3.53,3.12,5a40,40,0,0,0,7.94,3.89q4.65,1.75,9.34,3.93A20.23,20.23,0,0,1,813,74.24a15,15,0,0,1,2.76,10.1q-.66,10.39-8.67,15.71t-20.84,4.59a94.93,94.93,0,0,1-10.73-1.28c-3.72-.66-6.6-1.24-8.61-1.76l-3-.9q.52-10,1.06-19.92Z"/><path d="M25.22,37.29a4.27,4.27,0,0,0,3.05-.87,13.69,13.69,0,0,1,8.52-2.48C48.4,33.94,54,40.1,54,55.85H74c0-10.75,1.62-15.67,4.8-19.67s8.16-6,14.9-6c5.24,0,9.58,1.72,12.58,5.15S111,43.73,111,50.22v3a2.66,2.66,0,0,0,2.67,2.67h15.66A2.66,2.66,0,0,0,132,53.18v-3.9C132,16.84,119.31.62,93.48.62,78.63.62,68.77,9.54,63.65,27.39c-4.74-15-15-22.47-30.83-22.47C22.09,4.92,14,8.64,8.61,16.06A39.54,39.54,0,0,0,2.43,29.48a4.34,4.34,0,0,0,3.66,5.37Z"/><path class="cls-1" d="M110.56,65.85H24.83A1.83,1.83,0,0,1,23,64V49.85c0-.44,0-.86-.05-1.28a1.84,1.84,0,0,0-1.6-1.72L2.05,44.42a1.79,1.79,0,0,0-2,1.66V65.76l1.37,40.32a1.83,1.83,0,0,0,1.83,1.77H15.73a1.82,1.82,0,0,0,1.7-1.15L22.12,95a1.84,1.84,0,0,1,1.7-1.15h86.3a1.82,1.82,0,0,1,1.75,1.31c1.57,5.37,2.86,8.85,3.86,11.51a1.82,1.82,0,0,0,1.71,1.18h12.73A1.83,1.83,0,0,0,132,106V67.68a1.83,1.83,0,0,0-1.83-1.83Z"/><path d="M815.6,103.89a3.34,3.34,0,0,1,.26-1.29,2.91,2.91,0,0,1,.69-1,3.42,3.42,0,0,1,1.05-.69,3.24,3.24,0,0,1,2.59,0,3.42,3.42,0,0,1,1,.69,3.24,3.24,0,0,1,.71,1,3.34,3.34,0,0,1,.26,1.29,3.27,3.27,0,0,1-.26,1.29,3.31,3.31,0,0,1-.71,1,3.32,3.32,0,0,1-2.34.94,3.46,3.46,0,0,1-1.3-.25,3.42,3.42,0,0,1-1.05-.69,3,3,0,0,1-.69-1A3.27,3.27,0,0,1,815.6,103.89Z"/><path d="M840.82,104.93a9.9,9.9,0,0,1-2.07,1.33,8.33,8.33,0,0,1-2.2.71,14.15,14.15,0,0,1-2.53.21,8.52,8.52,0,0,1-3.47-.67,7.17,7.17,0,0,1-2.61-1.88,8.34,8.34,0,0,1-1.62-2.95,12.38,12.38,0,0,1-.56-3.83,15.55,15.55,0,0,1,.87-5.2,14.19,14.19,0,0,1,2.45-4.36,12,12,0,0,1,3.72-3,10,10,0,0,1,4.71-1.12,8.32,8.32,0,0,1,3.78.78,8.22,8.22,0,0,1,2.78,2.36l-1.72,2a3.13,3.13,0,0,1-.44.36,1,1,0,0,1-.56.16,1.14,1.14,0,0,1-.68-.23c-.2-.15-.44-.32-.71-.49a5.18,5.18,0,0,0-1-.49,4.51,4.51,0,0,0-1.56-.23,4.57,4.57,0,0,0-2.37.68A6.49,6.49,0,0,0,833,91a10.26,10.26,0,0,0-1.37,3,13.71,13.71,0,0,0-.51,3.86,5.85,5.85,0,0,0,1.09,3.8,3.56,3.56,0,0,0,2.94,1.34,5.11,5.11,0,0,0,2.06-.36,6.34,6.34,0,0,0,1.38-.78q.57-.42,1-.78a1.52,1.52,0,0,1,1-.36,1,1,0,0,1,.51.14,1.55,1.55,0,0,1,.45.36l1.37,1.65A19.89,19.89,0,0,1,840.82,104.93Z"/><path d="M853.21,107.18a9.43,9.43,0,0,1-3.44-.62,7.57,7.57,0,0,1-2.72-1.82,8.62,8.62,0,0,1-1.8-2.95,11.21,11.21,0,0,1-.65-4,15.62,15.62,0,0,1,.92-5.4,13.78,13.78,0,0,1,2.53-4.34,12,12,0,0,1,3.74-2.88,10.3,10.3,0,0,1,4.56-1,9.17,9.17,0,0,1,3.43.62,7.61,7.61,0,0,1,2.74,1.82,8.37,8.37,0,0,1,1.8,2.94,11.2,11.2,0,0,1,.66,4,15,15,0,0,1-.94,5.37,13.91,13.91,0,0,1-2.54,4.34,11.8,11.8,0,0,1-3.74,2.9A10,10,0,0,1,853.21,107.18Zm.48-4.14a4.1,4.1,0,0,0,2.44-.78,6.57,6.57,0,0,0,1.86-2.07,10.7,10.7,0,0,0,1.19-3,15.22,15.22,0,0,0,.41-3.62,6.93,6.93,0,0,0-.92-4,3.24,3.24,0,0,0-2.8-1.28,4.18,4.18,0,0,0-2.45.76,6.55,6.55,0,0,0-1.85,2.07,10.87,10.87,0,0,0-1.17,3,15.32,15.32,0,0,0-.42,3.64,6.92,6.92,0,0,0,.92,4A3.21,3.21,0,0,0,853.69,103Z"/><path d="M867,106.85l2.72-22.39h2.73a2,2,0,0,1,1.31.4,1.53,1.53,0,0,1,.47,1.24v.06s0,.13,0,.3,0,.42,0,.76,0,.83-.06,1.45a11.28,11.28,0,0,1,3.26-3.41,6.77,6.77,0,0,1,3.69-1.12,4.07,4.07,0,0,1,3.26,1.37,6.73,6.73,0,0,1,1.38,4,12.06,12.06,0,0,1,3.48-4,7.24,7.24,0,0,1,4.15-1.29,4.68,4.68,0,0,1,3.87,1.69,7.58,7.58,0,0,1,1.36,4.87c0,.29,0,.6,0,.92a8.64,8.64,0,0,1-.09,1l-1.67,14.23h-5.32c.29-2.47.53-4.57.74-6.29s.37-3.16.5-4.31.23-2.06.3-2.72.13-1.16.17-1.51.06-.6.06-.72,0-.22,0-.3a3.16,3.16,0,0,0-.43-1.88,1.65,1.65,0,0,0-1.42-.58,3.28,3.28,0,0,0-1.61.44,5.53,5.53,0,0,0-1.49,1.26,9.61,9.61,0,0,0-1.31,2A17.88,17.88,0,0,0,886,95l-1.39,11.88h-5.3L881,92.62c0-.31,0-.6.07-.86s0-.52,0-.76a3.23,3.23,0,0,0-.43-1.88,1.61,1.61,0,0,0-1.41-.58,3.27,3.27,0,0,0-1.65.46,5.42,5.42,0,0,0-1.52,1.32,10.56,10.56,0,0,0-1.31,2.09,18.72,18.72,0,0,0-1,2.76l-1.4,11.68Z"/><path d="M281.31,137l-3,.13a1.24,1.24,0,0,1-.83-.23,1.35,1.35,0,0,1-.43-.67q-1-3.65-2-7.3l-12.32.55c-1,2.51-2.08,5-3.11,7.52a1.89,1.89,0,0,1-.55.69,1.53,1.53,0,0,1-.86.33l-3.08.14q6.69-15.42,13.48-30.83l4-.18Q277,122.06,281.31,137Zm-17.38-10.44,10.37-.46L271,113.72q-.15-.54-.33-1.23c-.12-.46-.23-.95-.32-1.48-.18.54-.35,1-.54,1.53s-.36.9-.52,1.28Q266.59,120.18,263.93,126.54Z"/><path d="M314.37,118.5a19.81,19.81,0,0,1-.95,7.06,16.49,16.49,0,0,1-3.1,5.55,14.5,14.5,0,0,1-4.87,3.68,16,16,0,0,1-6.26,1.48l-10.43.4q1.26-15.15,2.55-30.31l10.47-.39a12.88,12.88,0,0,1,5.09.76,10.82,10.82,0,0,1,3.92,2.53,11.82,11.82,0,0,1,2.55,4A15.44,15.44,0,0,1,314.37,118.5Zm-4.06.23a13.49,13.49,0,0,0-.72-4.09,8.68,8.68,0,0,0-1.79-3,7.17,7.17,0,0,0-2.72-1.87,8.91,8.91,0,0,0-3.57-.55l-6.48.24q-1,12-2,23.9l6.45-.24A11.09,11.09,0,0,0,304,132a10.2,10.2,0,0,0,3.48-2.89,13.08,13.08,0,0,0,2.18-4.46A19.05,19.05,0,0,0,310.31,118.73Z"/><path d="M347.88,117.47a19.71,19.71,0,0,1-1,7,16.55,16.55,0,0,1-3.14,5.53,14.67,14.67,0,0,1-4.9,3.65,16,16,0,0,1-6.27,1.43l-10.43.33,2.76-30.29,10.48-.33a13,13,0,0,1,5.08.8,10.64,10.64,0,0,1,3.9,2.56,11.81,11.81,0,0,1,2.53,4A15.49,15.49,0,0,1,347.88,117.47Zm-4.06.19a13.25,13.25,0,0,0-.7-4.09,8.53,8.53,0,0,0-1.76-3,7.29,7.29,0,0,0-2.71-1.89,8.83,8.83,0,0,0-3.56-.58l-6.48.2q-1.11,11.94-2.21,23.89l6.45-.2a10.93,10.93,0,0,0,4.59-1.1A10.19,10.19,0,0,0,341,128a13,13,0,0,0,2.2-4.45A19,19,0,0,0,343.82,117.66Z"/><path d="M360.17,134.36l-4,.1q1.46-15.14,2.93-30.27l4-.09Q361.63,119.22,360.17,134.36Z"/><path d="M383.87,130.78a11.51,11.51,0,0,0,4.35-.88,7.48,7.48,0,0,0,1.39-.78c.38-.28.72-.53,1-.76l.71-.59a1,1,0,0,1,.53-.24.63.63,0,0,1,.32.07.91.91,0,0,1,.21.18l1.4,1.68a14.61,14.61,0,0,1-4.5,3.42,14.31,14.31,0,0,1-6,1.3,11.59,11.59,0,0,1-4.87-.87,10.09,10.09,0,0,1-3.69-2.63,11.91,11.91,0,0,1-2.37-4.08,16.57,16.57,0,0,1-.91-5.27,20.26,20.26,0,0,1,1.06-7.23,17.11,17.11,0,0,1,3.26-5.69,15.29,15.29,0,0,1,5-3.75,15.12,15.12,0,0,1,6.23-1.41,14.14,14.14,0,0,1,2.93.22,9.84,9.84,0,0,1,2.41.75,9.43,9.43,0,0,1,2,1.23,12.15,12.15,0,0,1,1.67,1.62l-1.32,1.66a2.14,2.14,0,0,1-.38.36,1,1,0,0,1-.53.14,1.19,1.19,0,0,1-.81-.4,8,8,0,0,0-1.17-.9,8.27,8.27,0,0,0-4.91-1.25,10.92,10.92,0,0,0-4.58,1.07,10.71,10.71,0,0,0-3.65,2.88,13.28,13.28,0,0,0-2.37,4.46,17.64,17.64,0,0,0-.77,5.83,13.06,13.06,0,0,0,.7,4.18,9.29,9.29,0,0,0,1.76,3.11,7.35,7.35,0,0,0,2.63,1.94A7.84,7.84,0,0,0,383.87,130.78Z"/><path d="M424.3,103c-.13,1.11-.25,2.21-.38,3.32l-9,.1q-1.47,13.47-2.93,26.92l-3.92.06Q409.54,120,411,106.5l-9,.13c.11-1.1.23-2.21.35-3.31Q413.33,103.14,424.3,103Z"/><path d="M449.35,106q-6.64,0-13.29.09c-.39,3.4-.79,6.79-1.18,10.19l10.74-.09c-.13,1-.25,2.07-.38,3.1l-10.72.09q-.58,5.25-1.19,10.5,6.63-.06,13.27-.1c-.13,1.06-.26,2.13-.38,3.2q-8.61.06-17.22.14,1.71-15.1,3.45-30.22,8.64-.07,17.28-.13C449.6,103.89,449.48,105,449.35,106Z"/><path d="M481.93,115.71a19.72,19.72,0,0,1-1.2,7,16.62,16.62,0,0,1-3.29,5.43,14.7,14.7,0,0,1-5,3.51,15.83,15.83,0,0,1-6.31,1.25l-10.43,0q1.8-15.1,3.62-30.2l10.47,0a13,13,0,0,1,5.06.94,10.79,10.79,0,0,1,3.83,2.67,11.81,11.81,0,0,1,2.41,4.11A15.71,15.71,0,0,1,481.93,115.71Zm-4.06.09a13.47,13.47,0,0,0-.58-4.11,9,9,0,0,0-1.67-3.11,7.4,7.4,0,0,0-2.66-2,8.9,8.9,0,0,0-3.54-.68l-6.49,0q-1.44,11.9-2.88,23.81l6.45,0a10.92,10.92,0,0,0,4.62-1A10.26,10.26,0,0,0,474.7,126a12.89,12.89,0,0,0,2.33-4.38A18.84,18.84,0,0,0,477.87,115.8Z"/><path d="M524.51,103c-.16,1.1-.31,2.2-.46,3.3l-9-.08q-1.77,13.42-3.51,26.85l-3.92,0q1.74-13.43,3.49-26.85l-9-.06.42-3.3Q513.53,102.87,524.51,103Z"/><path d="M554.72,116.34a20.44,20.44,0,0,1-.63,4.85,18.67,18.67,0,0,1-1.62,4.22,15.83,15.83,0,0,1-2.48,3.47,15.17,15.17,0,0,1-3.22,2.61,15.42,15.42,0,0,1-3.84,1.63,15.79,15.79,0,0,1-4.32.53,12.26,12.26,0,0,1-5-1.06,10.91,10.91,0,0,1-3.76-2.79,12,12,0,0,1-2.36-4.21,16.16,16.16,0,0,1-.78-5.31A20.16,20.16,0,0,1,528,113.2a16.89,16.89,0,0,1,3.4-5.53,15,15,0,0,1,5.09-3.59,15.36,15.36,0,0,1,6.34-1.22,12.25,12.25,0,0,1,5,1.08,11.25,11.25,0,0,1,3.77,2.82A12.36,12.36,0,0,1,554,111,16,16,0,0,1,554.72,116.34Zm-4.06,0a13.7,13.7,0,0,0-.52-4.17,9.39,9.39,0,0,0-1.64-3.2,7.42,7.42,0,0,0-2.64-2.06,8.59,8.59,0,0,0-3.54-.77,10.57,10.57,0,0,0-4.61.94,10.35,10.35,0,0,0-3.64,2.81,13.72,13.72,0,0,0-2.4,4.45,19,19,0,0,0-.91,5.85,13.53,13.53,0,0,0,.54,4.16,9.39,9.39,0,0,0,1.64,3.18,7.27,7.27,0,0,0,2.62,2,8.46,8.46,0,0,0,3.52.76,10.71,10.71,0,0,0,4.63-.93,10.2,10.2,0,0,0,3.62-2.78,13.53,13.53,0,0,0,2.41-4.43A19.29,19.29,0,0,0,550.66,116.36Z"/><path d="M592,108.82a2.06,2.06,0,0,1-.46.44.79.79,0,0,1-.51.15,1.15,1.15,0,0,1-.75-.39,11.35,11.35,0,0,0-1-.82,8,8,0,0,0-1.5-.84,5.8,5.8,0,0,0-2.21-.42,6.4,6.4,0,0,0-2.43.37,5.15,5.15,0,0,0-1.82,1.11,4.82,4.82,0,0,0-1.14,1.67,5.47,5.47,0,0,0-.43,2.07,3.19,3.19,0,0,0,.47,1.86,4.63,4.63,0,0,0,1.3,1.31,10.27,10.27,0,0,0,1.87,1l2.15.89c.73.31,1.44.64,2.14,1a7.78,7.78,0,0,1,1.87,1.35,6.1,6.1,0,0,1,1.28,1.91,6.22,6.22,0,0,1,.44,2.66,11.08,11.08,0,0,1-.83,4,10,10,0,0,1-2.2,3.29,10.16,10.16,0,0,1-3.4,2.19,11.16,11.16,0,0,1-4.42.75,10.59,10.59,0,0,1-4.79-1.17,9.82,9.82,0,0,1-3.43-3l1.43-1.84a1.27,1.27,0,0,1,.43-.37,1.07,1.07,0,0,1,.55-.14,1.31,1.31,0,0,1,.86.49,14.52,14.52,0,0,0,1.16,1.08,7.84,7.84,0,0,0,1.75,1.09,6.38,6.38,0,0,0,2.62.53,7.18,7.18,0,0,0,2.64-.4,5.78,5.78,0,0,0,2-1.24,5.71,5.71,0,0,0,1.3-1.94,7,7,0,0,0,.5-2.53,3.47,3.47,0,0,0-.46-1.94,4.42,4.42,0,0,0-1.3-1.32,9.19,9.19,0,0,0-1.85-1c-.69-.28-1.4-.56-2.14-.84a22.62,22.62,0,0,1-2.13-.95,7.71,7.71,0,0,1-1.85-1.33,6,6,0,0,1-1.29-1.94,7,7,0,0,1-.45-2.82,9.57,9.57,0,0,1,.76-3.54,8.87,8.87,0,0,1,2-3,9.59,9.59,0,0,1,3.14-2,10.31,10.31,0,0,1,4.13-.68,9.57,9.57,0,0,1,4.18,1,8.37,8.37,0,0,1,3,2.5Z"/><path d="M603.18,131.3l12,.33c-.17,1.11-.33,2.21-.5,3.32q-7.95-.24-15.88-.44,2.25-15,4.53-30.08l4,.11Q605.19,117.92,603.18,131.3Z"/><path d="M644.36,108.94l-13.28-.46q-.81,5.07-1.6,10.13l10.73.36c-.17,1-.33,2.06-.5,3.08L629,121.69q-.82,5.22-1.63,10.45l13.26.44-.51,3.19-17.21-.57q2.33-15,4.69-30,8.64.27,17.28.58C644.7,106.8,644.53,107.87,644.36,108.94Z"/><path d="M671.2,110q-6.65-.28-13.28-.53-.84,5.06-1.66,10.12,5.37.19,10.73.42c-.17,1-.35,2-.52,3.07l-10.71-.41-1.68,10.43,13.25.52c-.18,1.06-.35,2.12-.53,3.18q-8.59-.35-17.21-.66,2.43-15,4.87-30,8.64.33,17.27.68C671.55,107.83,671.37,108.9,671.2,110Z"/><path d="M682.44,126.09l-1.89,11.26-3.91-.17q2.48-15,5-30l8.37.37a13.85,13.85,0,0,1,4.17.76,7.76,7.76,0,0,1,2.86,1.76,6.74,6.74,0,0,1,1.61,2.6,9.08,9.08,0,0,1,.41,3.31,11.6,11.6,0,0,1-1,4.33,9.49,9.49,0,0,1-2.43,3.32,10.64,10.64,0,0,1-3.77,2.07,14.33,14.33,0,0,1-5,.58Zm2.63-15.66Q684,116.72,683,123l4.4.19a8.47,8.47,0,0,0,3.19-.4,6.41,6.41,0,0,0,2.37-1.42,6.59,6.59,0,0,0,1.53-2.27,8.9,8.9,0,0,0,.62-2.94,6.19,6.19,0,0,0-.26-2.2,4.4,4.4,0,0,0-1-1.7,4.79,4.79,0,0,0-1.78-1.14,7.92,7.92,0,0,0-2.54-.48Z"/><line class="cls-2" x1="130.18" y1="60.85" x2="30.18" y2="60.85"/></g></g></svg>