<?xml version="1.0" encoding="utf-8"?>
<!-- Generator: Adobe Illustrator 19.0.0, SVG Export Plug-In . SVG Version: 6.00 Build 0)  -->
<svg version="1.1" id="Layer_1" xmlns="http://www.w3.org/2000/svg" xmlns:xlink="http://www.w3.org/1999/xlink" x="0px" y="0px"
	 viewBox="-30 211.9 898.6 138.1" style="enable-background:new -30 211.9 898.6 138.1;" xml:space="preserve">
<style type="text/css">
	.st0{fill:#0070CC;}
	.st1{fill:none;stroke:#000000;stroke-width:5;stroke-linecap:round;stroke-miterlimit:10;}
</style>
<title>Asset 1</title>
<g id="Layer_2">
	<g id="Layer_1-2">
		<path d="M154,229.2l13.1-0.7c8.4-0.5,15.1,1,20.2,4.3c5.1,3.3,7.8,8.5,8.2,15.5c0.5,10.4-4.1,17.3-13.8,20.9
			c11.9,2.7,18.1,8.9,18.6,18.7c0.8,16.9-9.4,25.8-30.6,27c-12.8,0.7-25.7,1.5-38.5,2.3l-0.7-10.6c2-0.9,5-2.1,9-3.6
			c-1.2-19.3-2.4-38.7-3.6-58c-3.2-1-6.3-2.1-9.5-3.1c-0.2-3.4-0.4-6.8-0.6-10.1C135.3,230.7,144.7,229.9,154,229.2z M154.8,243.6
			c0.4,6.9,0.8,13.8,1.2,20.8l7.2-0.4c9.2-0.5,13.7-4.5,13.3-12.1c-0.2-3.1-1.3-5.4-3.3-6.9c-2.3-1.6-5-2.3-7.8-2
			C161.9,243.2,158.4,243.4,154.8,243.6L154.8,243.6z M164,276.8l-7.1,0.4c0.5,7.9,0.9,15.9,1.4,23.8l10.2-0.6
			c4.3-0.2,7.5-1.4,9.6-3.5c2.2-2.2,3.3-5.2,3-8.3c-0.2-4.4-1.7-7.6-4.5-9.5C173.8,277.3,169.6,276.5,164,276.8z"/>
		<path d="M269.8,280.7c-13.6,0.6-27.2,1.3-40.9,2c0.5,5,2.2,8.9,5,11.5c2.8,2.7,6.6,4,10.4,3.7c3.3-0.2,6.5-0.8,9.6-1.8
			c2.7-0.8,5.4-1.9,7.9-3.2l2.9-1.6c1.9,3.2,3.8,6.4,5.6,9.6c-0.9,0.8-2.1,1.8-3.7,3c-1.6,1.2-4.8,2.8-9.6,5
			c-4.5,2-9.3,3.2-14.2,3.4c-10.4,0.4-18.4-2.1-24.1-7.6c-5.7-5.5-8.8-13.5-9.3-24c-0.5-10.8,2-19.6,7.6-26.3
			c5.6-6.7,13.5-10.3,23.9-10.8c9.1-0.4,16.2,1.9,21.2,6.9s7.8,11.9,8.1,20.8C270.1,274.6,269.9,277.6,269.8,280.7z M240.3,258.2
			c-3.1,0-6.1,1.4-8.1,3.8c-2.1,2.7-3.3,5.9-3.5,9.3c7.4-0.3,14.8-0.6,22.2-0.9C250.6,262,247,258,240.3,258.2z"/>
		<path d="M349.2,307c-8.6,0.5-17.1,1-25.7,1.5c-0.4-2.1-0.8-4.3-1.3-6.5c-4.7,5.1-11.3,8.1-18.3,8.2c-8.4,0.3-14.8-2.4-19.1-8
			c-4.4-5.6-6.7-13.6-7.1-23.9c-0.4-11.6,2.2-20.5,7.9-26.9c5.7-6.4,14.3-9.7,25.9-10c2.7-0.1,5.5,0.3,8.1,1
			c-0.1-5.2-0.3-10.4-0.4-15.5l-10-2.2l-0.3-9.8c9.4-0.6,18.8-1.2,28.3-1.7l1.8,81.7l9.9,2.2C349,300.5,349.1,303.7,349.2,307z
			 M320.9,288.4c-0.3-10.4-0.6-20.9-0.8-31.3c-2.1-1.2-5.3-1.7-9.7-1.6c-9.5,0.3-14,7.3-13.6,21.2c0.4,12.9,4.5,19.2,12.4,19
			c2.3-0.1,4.5-0.8,6.4-2c1.6-0.9,3-2.1,4.1-3.6L320.9,288.4z"/>
		<path d="M421.2,306c-8.1,0.3-16.2,0.7-24.2,1.1c-0.8-2.7-1.5-5.3-2.3-7.9c-0.7,0.7-1.7,1.5-2.9,2.5c-2.2,1.6-4.5,3-7,4.2
			c-3,1.6-6.4,2.6-9.8,2.7c-6,0.1-10.6-1.5-14-4.8c-3.4-3.3-5.2-8-5.3-14.1c-0.3-13.5,9.5-20.4,29.2-20.7l8.6-0.1l-0.1-6.7
			c-0.1-6.1-3.3-9.1-9.6-9.1c-1.9,0-3.7,0.2-5.6,0.6c-1.4,0.2-2.7,0.6-4.1,1l-1.2,0.4c-0.6,2.7-1.1,5.3-1.7,8l-11.1,0.2
			c-0.4-6-0.8-12.1-1.2-18.1c9.9-3.4,18.9-5.2,26.8-5.3c9.4-0.1,16.1,1.6,20,5.2c3.9,3.6,5.9,9.8,6,18.7l0.3,30.2
			c3.1,0.7,6.1,1.4,9.2,2.1C421.1,299.5,421.2,302.7,421.2,306z M373.3,287.6c0.1,4.9,2.5,7.3,7.4,7.2c2.2-0.1,4.3-0.7,6.2-1.9
			c1.8-1,3.5-2.2,5-3.7l1.8-1.7c0-2.7-0.1-5.5-0.1-8.2l-7,0.1c-4.8,0.1-8.2,0.7-10.3,2C374.2,282.7,373,285.1,373.3,287.6z"/>
		<path d="M426.4,212.9c9.4-0.4,18.9-0.7,28.3-1.1v35.9c6.8-5.6,13.7-8.3,20.8-8.3c6.2,0,10.9,2,14.2,5.9s4.9,9.3,4.8,16.2
			c-0.1,10.8-0.2,21.6-0.2,32.4l8.6,3.1l-0.1,9.8c-11-0.1-22-0.2-33.1-0.2c0-3.3,0-6.5,0-9.8l6.4-2.9c0-9.9,0-19.8,0.1-29.7
			c0-6.5-2.7-9.8-8.1-9.8c-2.2,0-4.4,0.6-6.4,1.6c-1.9,0.9-3.6,2-5.2,3.2l-1.9,1.6c0,11,0,21.9,0,32.9c2.2,1,4.3,2,6.5,3.1
			c0,3.3,0,6.5,0,9.8c-11.4,0-22.9,0-34.3,0.1l-0.1-9.8l9.8-3.1c-0.1-22.9-0.2-45.9-0.3-68.8l-10-2.4L426.4,212.9z"/>
		<path d="M544,240.1c10,0.2,17.7,3.2,23,9.1c5.3,5.9,7.9,14.1,7.6,24.6c-0.2,10.9-3.4,19.5-9.5,25.8c-6.1,6.2-14.1,9.3-24,9.1
			c-20.8-0.3-31.1-11.6-30.9-34.1c0.1-10.9,3.2-19.5,9.3-25.5S533.8,239.9,544,240.1z M543.2,254.2c-4.7-0.1-8.2,1.4-10.4,4.4
			s-3.4,8.2-3.5,15.6c-0.1,7,0.9,12.2,2.9,15.4c2,3.2,5.3,4.9,9.8,5c4.5,0.1,7.8-1.5,10-4.6s3.3-8.5,3.5-16
			c0.1-6.6-0.8-11.5-2.8-14.8C550.7,255.9,547.5,254.2,543.2,254.2L543.2,254.2z"/>
		<path d="M583.4,214.3c9.6-0.1,19.2-0.2,28.8-0.2c-0.8,27.3-1.6,54.7-2.4,82l11.6,3.4c-0.1,3.3-0.2,6.5-0.3,9.8
			c-13.3-0.4-26.6-0.8-39.9-1.1c0.1-3.3,0.2-6.5,0.2-9.8l9.9-2.8c0.6-22.9,1.2-45.9,1.7-68.7l-9.9-2.7L583.4,214.3z"/>
		<path d="M628.3,244.4c9.4,0,18.8,0,28.2,0l-2,53.2l8.5,3.4l-0.4,9.8c-12.1-0.5-24.2-0.9-36.4-1.3c0.1-3.3,0.2-6.5,0.3-9.8
			c3.3-0.9,6.6-1.8,9.9-2.7c0.5-13.3,0.9-26.7,1.4-40l-9.8-2.8C628.1,250.9,628.2,247.6,628.3,244.4z M636.6,223.4
			c0-3,1.2-5.9,3.4-7.9c2.1-1.9,4.9-2.8,7.7-2.7c7,0.3,10.3,4.1,10,11.4c0,3-1.2,6-3.5,8c-2,1.9-4.7,2.8-7.4,2.7
			c-3.4-0.1-6-1.2-7.8-3.2C637.3,229.9,636.5,227,636.6,223.4z"/>
		<path d="M722.4,293.9l5.6,10.7c-8.3,6.5-17.2,9.5-26.8,9.1c-10-0.5-17.7-3.8-23.1-9.9c-5.3-6.1-7.8-14.4-7.4-24.8
			c0.4-10.9,3.8-19.4,10-25.4c6.2-6,14.7-8.8,25.5-8.3c3.4,0.2,6.8,0.7,10.1,1.5c2.9,0.7,5.7,1.5,8.5,2.6l2.9,1.3
			c-0.5,6.6-1.1,13.3-1.6,19.9l-11-0.6c-0.4-3-0.9-5.9-1.3-8.9c-2.8-0.8-5.6-1.3-8.5-1.4c-4.6-0.2-8.2,1.1-10.9,4.1
			s-4.1,7.5-4.4,13.6c-0.3,6.9,0.8,12.3,3.2,16.1s6.2,5.8,11.2,6c1.6,0.1,3.1,0,4.7-0.2c1.5-0.2,2.9-0.6,4.4-1.1
			c1.4-0.5,2.5-0.9,3.3-1.3s1.9-0.9,3.3-1.7L722.4,293.9z"/>
		<path d="M746.2,293.3l0.5,8.6c3.2,1.1,6.6,1.7,10,1.8c6.5,0.4,9.8-1.6,10.1-6c0.1-1.9-0.9-3.5-3-5c-2.5-1.6-5.1-3-7.9-3.9
			c-3.2-1.2-6.3-2.5-9.4-4c-3.1-1.5-5.8-3.8-7.8-6.6c-2.1-3-3.1-6.7-2.8-10.3c0.4-7.2,3.1-12.3,8.1-15.4c5-3.1,11.2-4.4,18.5-4
			c3.6,0.2,7.2,0.8,10.7,1.6c3.8,0.8,6.8,1.6,9,2.3l3.2,1.2c-0.4,4.1-1,10.2-1.6,18.3l-10.9-0.8l-1.4-8c-2.6-1-5.3-1.6-8.1-1.7
			c-2.1-0.2-4.3,0.2-6.2,1.3c-1.5,1-2.4,2.6-2.5,4.4c-0.1,1.9,0.9,3.5,3.1,5c2.5,1.6,5.2,2.9,7.9,3.9c3.1,1.2,6.2,2.5,9.3,3.9
			c3.1,1.4,5.8,3.6,7.9,6.4c2.1,2.9,3.1,6.5,2.8,10.1c-0.4,6.9-3.3,12.2-8.7,15.7c-5.3,3.5-12.3,5.1-20.8,4.6
			c-3.6-0.2-7.2-0.6-10.7-1.3c-3.7-0.7-6.6-1.2-8.6-1.8l-3-0.9c0.3-6.7,0.7-13.3,1.1-19.9L746.2,293.3z"/>
		<path d="M-4.8,249.1c1.1,0.1,2.2-0.2,3-0.9c2.5-1.7,5.5-2.6,8.5-2.5c11.6,0,17.2,6.2,17.2,21.9h20c0-10.8,1.6-15.7,4.8-19.7
			s8.2-6,14.9-6c5.2,0,9.6,1.7,12.6,5.1c3,3.4,4.7,8.4,4.7,14.9v3c0,1.5,1.2,2.7,2.6,2.7c0,0,0,0,0,0h15.7c1.5,0,2.7-1.2,2.7-2.6
			c0,0,0,0,0-0.1v-3.9c0-32.4-12.7-48.7-38.5-48.7c-14.9,0-24.7,8.9-29.8,26.8c-4.7-15-15-22.5-30.8-22.5
			c-10.7,0-18.8,3.7-24.2,11.1c-2.9,4-5,8.6-6.2,13.4c-0.6,2.3,0.8,4.7,3.1,5.3c0.2,0,0.3,0.1,0.5,0.1L-4.8,249.1z"/>
		<path class="st0" d="M80.6,277.7H-5.2c-1,0-1.8-0.8-1.8-1.8c0,0,0,0,0,0v-14.1c0-0.4,0-0.9,0-1.3c-0.1-0.9-0.7-1.6-1.6-1.7
			l-19.3-2.4c-1-0.1-1.9,0.6-2,1.6c0,0,0,0.1,0,0.1v19.7l1.4,40.3c0,1,0.8,1.8,1.8,1.8h12.5c0.7,0,1.4-0.5,1.7-1.1l4.7-11.7
			c0.3-0.7,1-1.1,1.7-1.1h86.3c0.8,0,1.5,0.5,1.8,1.3c1.6,5.4,2.9,8.9,3.9,11.5c0.3,0.7,0.9,1.2,1.7,1.2h12.7c1,0,1.8-0.8,1.8-1.8
			c0,0,0,0,0,0v-38.3c0-1-0.8-1.8-1.8-1.8l0,0H80.6z"/>
		<path d="M785.6,315.8c0-0.4,0.1-0.9,0.3-1.3c0.2-0.4,0.4-0.7,0.7-1c0.3-0.3,0.7-0.5,1-0.7c0.8-0.4,1.8-0.4,2.6,0
			c0.4,0.2,0.7,0.4,1,0.7c0.3,0.3,0.5,0.6,0.7,1c0.2,0.4,0.3,0.8,0.3,1.3c0,0.4-0.1,0.9-0.3,1.3c-0.2,0.4-0.4,0.7-0.7,1
			c-0.6,0.6-1.5,0.9-2.3,0.9c-0.4,0-0.9-0.1-1.3-0.3c-0.4-0.2-0.7-0.4-1-0.7c-0.3-0.3-0.5-0.6-0.7-1
			C785.7,316.6,785.6,316.2,785.6,315.8z"/>
		<path d="M810.8,316.8c-0.6,0.5-1.3,1-2.1,1.3c-0.7,0.3-1.4,0.6-2.2,0.7c-0.8,0.1-1.7,0.2-2.5,0.2c-1.2,0-2.4-0.2-3.5-0.7
			c-1-0.4-1.9-1.1-2.6-1.9c-0.7-0.9-1.3-1.9-1.6-2.9c-0.4-1.2-0.6-2.5-0.6-3.8c0-1.8,0.3-3.5,0.9-5.2c0.6-1.6,1.4-3.1,2.5-4.4
			c1-1.2,2.3-2.3,3.7-3c1.5-0.8,3.1-1.1,4.7-1.1c1.3,0,2.6,0.2,3.8,0.8c1.1,0.6,2,1.4,2.8,2.4l-1.7,2c-0.1,0.1-0.3,0.3-0.4,0.4
			c-0.2,0.1-0.4,0.2-0.6,0.2c-0.2,0-0.5-0.1-0.7-0.2c-0.2-0.2-0.4-0.3-0.7-0.5c-0.3-0.2-0.7-0.4-1-0.5c-0.5-0.2-1-0.2-1.6-0.2
			c-0.8,0-1.7,0.2-2.4,0.7c-0.8,0.5-1.5,1.1-2,1.9c-0.6,0.9-1.1,1.9-1.4,3c-0.4,1.3-0.5,2.6-0.5,3.9c-0.1,1.4,0.3,2.7,1.1,3.8
			c0.7,0.9,1.8,1.4,2.9,1.3c0.7,0,1.4-0.1,2.1-0.4c0.5-0.2,1-0.5,1.4-0.8c0.4-0.3,0.7-0.5,1-0.8c0.3-0.2,0.6-0.4,1-0.4
			c0.2,0,0.4,0,0.5,0.1c0.2,0.1,0.3,0.2,0.5,0.4l1.4,1.6C812.3,315.5,811.6,316.2,810.8,316.8z"/>
		<path d="M823.2,319c-1.2,0-2.3-0.2-3.4-0.6c-1-0.4-2-1-2.7-1.8c-0.8-0.9-1.4-1.9-1.8-3c-0.5-1.3-0.7-2.6-0.7-4
			c0-1.8,0.3-3.7,0.9-5.4c0.6-1.6,1.4-3.1,2.5-4.3c1-1.2,2.3-2.2,3.7-2.9c1.4-0.7,3-1,4.6-1c1.2,0,2.3,0.2,3.4,0.6
			c1,0.4,2,1,2.7,1.8c0.8,0.8,1.4,1.8,1.8,2.9c0.5,1.3,0.7,2.6,0.7,4c0,1.8-0.3,3.7-0.9,5.4c-0.6,1.6-1.4,3.1-2.5,4.3
			c-1,1.2-2.3,2.2-3.7,2.9C826.3,318.7,824.8,319.1,823.2,319z M823.7,314.9c0.9,0,1.7-0.3,2.4-0.8c0.8-0.5,1.4-1.3,1.9-2.1
			c0.5-0.9,0.9-1.9,1.2-3c0.3-1.2,0.4-2.4,0.4-3.6c0.1-1.4-0.2-2.8-0.9-4c-0.7-0.9-1.7-1.4-2.8-1.3c-0.9,0-1.7,0.3-2.5,0.8
			c-0.8,0.5-1.4,1.3-1.8,2.1c-0.5,0.9-0.9,1.9-1.2,3c-0.3,1.2-0.4,2.4-0.4,3.6c-0.1,1.4,0.2,2.8,0.9,4
			C821.6,314.5,822.6,314.9,823.7,314.9L823.7,314.9z"/>
		<path d="M837,318.7l2.7-22.4h2.7c0.5,0,0.9,0.1,1.3,0.4c0.3,0.3,0.5,0.8,0.5,1.2v0.1c0,0,0,0.1,0,0.3c0,0.2,0,0.4,0,0.8
			c0,0.3,0,0.8-0.1,1.4c0.8-1.4,1.9-2.5,3.3-3.4c1.1-0.7,2.4-1.1,3.7-1.1c1.2-0.1,2.4,0.4,3.3,1.4c0.9,1.2,1.4,2.6,1.4,4
			c0.8-1.6,2-2.9,3.5-4c1.2-0.8,2.7-1.3,4.2-1.3c1.5-0.1,2.9,0.5,3.9,1.7c1,1.4,1.5,3.1,1.4,4.9c0,0.3,0,0.6,0,0.9
			c0,0.3,0,0.7-0.1,1l-1.7,14.2h-5.3c0.3-2.5,0.5-4.6,0.7-6.3s0.4-3.2,0.5-4.3s0.2-2.1,0.3-2.7s0.1-1.2,0.2-1.5s0.1-0.6,0.1-0.7
			s0-0.2,0-0.3c0.1-0.7-0.1-1.3-0.4-1.9c-0.3-0.4-0.9-0.6-1.4-0.6c-0.6,0-1.1,0.2-1.6,0.4c-0.6,0.3-1.1,0.8-1.5,1.3
			c-0.5,0.6-1,1.3-1.3,2c-0.4,0.9-0.8,1.8-1,2.7l-1.4,11.9h-5.3l1.7-14.3c0-0.3,0-0.6,0.1-0.9s0-0.5,0-0.8c0.1-0.7-0.1-1.3-0.4-1.9
			c-0.3-0.4-0.9-0.6-1.4-0.6c-0.6,0-1.2,0.2-1.7,0.5c-0.6,0.3-1.1,0.8-1.5,1.3c-0.5,0.6-1,1.3-1.3,2.1c-0.4,0.9-0.7,1.8-1,2.8
			l-1.4,11.7H837z"/>
		<path d="M251.3,348.9l-3,0.1c-0.3,0-0.6-0.1-0.8-0.2c-0.2-0.2-0.4-0.4-0.4-0.7c-0.7-2.4-1.3-4.9-2-7.3l-12.3,0.6
			c-1,2.5-2.1,5-3.1,7.5c-0.1,0.3-0.3,0.5-0.5,0.7c-0.2,0.2-0.5,0.3-0.9,0.3l-3.1,0.1c4.5-10.3,9-20.6,13.5-30.8l4-0.2
			C245.5,329,248.4,338.9,251.3,348.9z M233.9,338.4l10.4-0.5l-3.3-12.4c-0.1-0.4-0.2-0.8-0.3-1.2s-0.2-1-0.3-1.5
			c-0.2,0.5-0.4,1-0.5,1.5s-0.4,0.9-0.5,1.3C237.5,329.9,235.7,334.2,233.9,338.4L233.9,338.4z"/>
		<path d="M284.4,330.4c0.1,2.4-0.2,4.8-1,7.1c-0.7,2-1.7,3.9-3.1,5.6c-1.3,1.6-3,2.8-4.9,3.7c-2,0.9-4.1,1.4-6.3,1.5l-10.4,0.4
			c0.8-10.1,1.7-20.2,2.5-30.3l10.5-0.4c1.7-0.1,3.5,0.2,5.1,0.8c1.5,0.5,2.8,1.4,3.9,2.5c1.1,1.1,2,2.5,2.5,4
			C284,326.8,284.3,328.6,284.4,330.4z M280.3,330.6c0-1.4-0.3-2.8-0.7-4.1c-0.4-1.1-1-2.1-1.8-3c-0.7-0.8-1.7-1.5-2.7-1.9
			c-1.1-0.4-2.4-0.6-3.6-0.6l-6.5,0.2c-0.7,8-1.3,16-2,23.9l6.5-0.2c1.6,0,3.1-0.4,4.5-1.1c1.4-0.7,2.6-1.7,3.5-2.9
			c1-1.3,1.7-2.8,2.2-4.5C280.2,334.6,280.4,332.6,280.3,330.6z"/>
		<path d="M317.9,329.3c0.1,2.4-0.2,4.7-1,7c-0.7,2-1.7,3.9-3.1,5.5c-1.4,1.5-3,2.8-4.9,3.7c-2,0.9-4.1,1.4-6.3,1.4l-10.4,0.3
			l2.8-30.3l10.5-0.3c1.7-0.1,3.5,0.2,5.1,0.8c1.5,0.6,2.8,1.4,3.9,2.6c1.1,1.1,2,2.5,2.5,4C317.5,325.7,317.9,327.5,317.9,329.3z
			 M313.8,329.5c0-1.4-0.3-2.8-0.7-4.1c-0.4-1.1-1-2.1-1.8-3c-0.7-0.8-1.7-1.5-2.7-1.9c-1.1-0.4-2.3-0.6-3.6-0.6l-6.5,0.2
			c-0.7,8-1.5,15.9-2.2,23.9l6.5-0.2c1.6,0,3.2-0.4,4.6-1.1c1.4-0.7,2.6-1.7,3.6-2.9c1-1.3,1.8-2.8,2.2-4.4
			C313.7,333.5,313.9,331.5,313.8,329.5z"/>
		<path d="M330.2,346.2l-4,0.1c1-10.1,1.9-20.2,2.9-30.3l4-0.1C332.1,326,331.1,336.1,330.2,346.2z"/>
		<path d="M353.9,342.6c1.5,0,3-0.3,4.4-0.9c0.5-0.2,1-0.5,1.4-0.8c0.4-0.3,0.7-0.5,1-0.8l0.7-0.6c0.1-0.1,0.3-0.2,0.5-0.2
			c0.1,0,0.2,0,0.3,0.1c0.1,0,0.1,0.1,0.2,0.2l1.4,1.7c-1.3,1.4-2.8,2.6-4.5,3.4c-1.9,0.9-3.9,1.3-6,1.3c-1.7,0.1-3.3-0.2-4.9-0.9
			c-1.4-0.6-2.7-1.5-3.7-2.6c-1.1-1.2-1.9-2.6-2.4-4.1c-0.6-1.7-0.9-3.5-0.9-5.3c-0.1-2.5,0.3-4.9,1.1-7.2c0.7-2.1,1.8-4,3.3-5.7
			c1.4-1.6,3.1-2.9,5-3.8c2-0.9,4.1-1.4,6.2-1.4c1,0,2,0,2.9,0.2c0.8,0.1,1.6,0.4,2.4,0.8c0.7,0.3,1.4,0.7,2,1.2
			c0.6,0.5,1.2,1,1.7,1.6l-1.3,1.7c-0.1,0.1-0.2,0.3-0.4,0.4c-0.2,0.1-0.3,0.1-0.5,0.1c-0.3,0-0.6-0.2-0.8-0.4
			c-0.4-0.3-0.8-0.6-1.2-0.9c-1.5-0.9-3.2-1.4-4.9-1.3c-1.6,0-3.1,0.4-4.6,1.1c-1.4,0.7-2.7,1.7-3.6,2.9c-1.1,1.3-1.9,2.8-2.4,4.5
			c-0.6,1.9-0.8,3.9-0.8,5.8c0,1.4,0.2,2.8,0.7,4.2c0.4,1.1,1,2.2,1.8,3.1c0.7,0.8,1.6,1.5,2.6,1.9
			C351.6,342.5,352.7,342.7,353.9,342.6z"/>
		<path d="M394.3,314.9c-0.1,1.1-0.3,2.2-0.4,3.3l-9,0.1c-1,9-2,18-2.9,26.9l-3.9,0.1c1-8.9,2-17.9,2.9-26.9l-9,0.1
			c0.1-1.1,0.2-2.2,0.4-3.3C379.7,315.1,387,315,394.3,314.9z"/>
		<path d="M419.4,317.9c-4.4,0-8.9,0-13.3,0.1c-0.4,3.4-0.8,6.8-1.2,10.2l10.7-0.1c-0.1,1-0.3,2.1-0.4,3.1l-10.7,0.1
			c-0.4,3.5-0.8,7-1.2,10.5c4.4,0,8.8-0.1,13.3-0.1c-0.1,1.1-0.3,2.1-0.4,3.2c-5.7,0-11.5,0.1-17.2,0.1c1.1-10.1,2.3-20.1,3.5-30.2
			c5.8,0,11.5-0.1,17.3-0.1C419.6,315.8,419.5,316.9,419.4,317.9z"/>
		<path d="M451.9,327.6c0,2.4-0.4,4.8-1.2,7c-0.7,2-1.9,3.8-3.3,5.4c-1.4,1.5-3.1,2.7-5,3.5c-2,0.8-4.1,1.3-6.3,1.3h-10.4
			c1.2-10.1,2.4-20.1,3.6-30.2h10.5c1.7,0,3.5,0.3,5.1,0.9c1.5,0.6,2.8,1.5,3.8,2.7c1.1,1.2,1.9,2.6,2.4,4.1
			C451.7,324,452,325.8,451.9,327.6z M447.9,327.7c0-1.4-0.2-2.8-0.6-4.1c-0.3-1.1-0.9-2.2-1.7-3.1c-0.7-0.9-1.6-1.5-2.7-2
			c-1.1-0.5-2.3-0.7-3.5-0.7h-6.5c-1,7.9-1.9,15.9-2.9,23.8h6.5c1.6,0,3.2-0.3,4.6-1c1.4-0.6,2.6-1.6,3.6-2.7
			c1.1-1.3,1.8-2.8,2.3-4.4C447.6,331.6,447.9,329.6,447.9,327.7z"/>
		<path d="M494.5,314.9c-0.2,1.1-0.3,2.2-0.5,3.3l-9-0.1c-1.2,8.9-2.4,17.9-3.5,26.8h-3.9c1.2-9,2.3-17.9,3.5-26.8l-9-0.1l0.4-3.3
			C479.9,314.7,487.2,314.8,494.5,314.9z"/>
		<path d="M524.7,328.2c0,1.6-0.2,3.3-0.6,4.8c-0.4,1.5-0.9,2.9-1.6,4.2c-0.7,1.3-1.5,2.4-2.5,3.5c-0.9,1-2,1.9-3.2,2.6
			c-1.2,0.7-2.5,1.3-3.8,1.6c-1.4,0.4-2.9,0.6-4.3,0.5c-1.7,0-3.4-0.4-5-1.1c-1.4-0.6-2.7-1.6-3.8-2.8c-1.1-1.2-1.9-2.7-2.4-4.2
			c-0.6-1.7-0.8-3.5-0.8-5.3c0-2.4,0.4-4.8,1.3-7.1c0.8-2,1.9-3.9,3.4-5.5c1.4-1.5,3.2-2.8,5.1-3.6c2-0.9,4.2-1.3,6.3-1.2
			c1.7,0,3.4,0.4,5,1.1c1.4,0.7,2.7,1.6,3.8,2.8c1.1,1.2,1.9,2.7,2.4,4.2C524.5,324.6,524.8,326.4,524.7,328.2z M520.7,328.2
			c0-1.4-0.1-2.8-0.5-4.2c-0.3-1.2-0.9-2.2-1.6-3.2c-0.7-0.9-1.6-1.6-2.6-2.1c-1.1-0.5-2.3-0.8-3.5-0.8c-1.6,0-3.2,0.3-4.6,0.9
			c-1.4,0.7-2.7,1.6-3.6,2.8c-1.1,1.3-1.9,2.8-2.4,4.5c-0.6,1.9-0.9,3.9-0.9,5.8c0,1.4,0.1,2.8,0.5,4.2c0.3,1.2,0.9,2.2,1.6,3.2
			c0.7,0.9,1.6,1.5,2.6,2c1.1,0.5,2.3,0.8,3.5,0.8c1.6,0,3.2-0.3,4.6-0.9c1.4-0.6,2.6-1.6,3.6-2.8c1.1-1.3,1.9-2.8,2.4-4.4
			C520.3,332.1,520.7,330.2,520.7,328.2L520.7,328.2z"/>
		<path d="M562,320.7c-0.1,0.2-0.3,0.3-0.5,0.4c-0.1,0.1-0.3,0.2-0.5,0.2c-0.3,0-0.6-0.2-0.8-0.4c-0.3-0.3-0.7-0.6-1-0.8
			c-0.5-0.3-1-0.6-1.5-0.8c-0.7-0.3-1.5-0.4-2.2-0.4c-0.8,0-1.7,0.1-2.4,0.4c-0.7,0.2-1.3,0.6-1.8,1.1c-0.5,0.5-0.9,1-1.1,1.7
			c-0.3,0.7-0.4,1.4-0.4,2.1c0,0.7,0.1,1.3,0.5,1.9c0.3,0.5,0.8,1,1.3,1.3c0.6,0.4,1.2,0.7,1.9,1l2.2,0.9c0.7,0.3,1.4,0.6,2.1,1
			c0.7,0.4,1.3,0.8,1.9,1.3c0.5,0.5,1,1.2,1.3,1.9c0.3,0.8,0.5,1.8,0.4,2.7c0,1.4-0.3,2.7-0.8,4c-0.5,1.2-1.3,2.4-2.2,3.3
			c-1,1-2.1,1.7-3.4,2.2c-1.4,0.5-2.9,0.8-4.4,0.8c-1.7,0-3.3-0.4-4.8-1.2c-1.4-0.7-2.5-1.7-3.4-3l1.4-1.8c0.1-0.2,0.3-0.3,0.4-0.4
			c0.2-0.1,0.4-0.1,0.5-0.1c0.3,0,0.6,0.2,0.9,0.5c0.4,0.4,0.8,0.7,1.2,1.1c0.5,0.4,1.1,0.8,1.8,1.1c0.8,0.4,1.7,0.5,2.6,0.5
			c0.9,0,1.8-0.1,2.6-0.4c0.7-0.3,1.4-0.7,2-1.2c0.6-0.6,1-1.2,1.3-1.9c0.3-0.8,0.5-1.7,0.5-2.5c0-0.7-0.1-1.4-0.5-1.9
			c-0.3-0.5-0.8-1-1.3-1.3c-0.6-0.4-1.2-0.7-1.8-1c-0.7-0.3-1.4-0.6-2.1-0.8c-0.7-0.3-1.4-0.6-2.1-0.9c-0.7-0.3-1.3-0.8-1.8-1.3
			c-0.6-0.6-1-1.2-1.3-1.9c-0.3-0.9-0.5-1.9-0.5-2.8c0-1.2,0.3-2.4,0.8-3.5c0.5-1.1,1.1-2.1,2-3c0.9-0.9,2-1.5,3.1-2
			c1.3-0.5,2.7-0.7,4.1-0.7c1.5,0,2.9,0.4,4.2,1c1.2,0.6,2.2,1.4,3,2.5L562,320.7z"/>
		<path d="M573.2,343.2l12,0.3c-0.2,1.1-0.3,2.2-0.5,3.3c-5.3-0.2-10.6-0.3-15.9-0.4c1.5-10,3-20,4.5-30.1l4,0.1
			C575.9,325.3,574.5,334.2,573.2,343.2z"/>
		<path d="M614.4,320.8l-13.3-0.5c-0.5,3.4-1.1,6.8-1.6,10.1l10.7,0.4c-0.2,1-0.3,2.1-0.5,3.1l-10.7-0.4c-0.5,3.5-1.1,7-1.6,10.5
			l13.3,0.4l-0.5,3.2l-17.2-0.6c1.6-10,3.1-20,4.7-30c5.8,0.2,11.5,0.4,17.3,0.6C614.7,318.7,614.5,319.7,614.4,320.8z"/>
		<path d="M641.2,321.9c-4.4-0.2-8.9-0.4-13.3-0.5c-0.6,3.4-1.1,6.7-1.7,10.1c3.6,0.1,7.2,0.3,10.7,0.4c-0.2,1-0.3,2-0.5,3.1
			l-10.7-0.4l-1.7,10.4l13.3,0.5c-0.2,1.1-0.3,2.1-0.5,3.2c-5.7-0.2-11.5-0.5-17.2-0.7c1.6-10,3.2-20,4.9-30
			c5.8,0.2,11.5,0.4,17.3,0.7C641.5,319.7,641.4,320.8,641.2,321.9z"/>
		<path d="M652.4,338l-1.9,11.3l-3.9-0.2c1.7-10,3.3-20,5-30l8.4,0.4c1.4,0,2.8,0.3,4.2,0.8c1.1,0.4,2,1,2.9,1.8
			c0.7,0.7,1.3,1.6,1.6,2.6c0.3,1.1,0.5,2.2,0.4,3.3c-0.1,1.5-0.4,3-1,4.3c-0.6,1.3-1.4,2.4-2.4,3.3c-1.1,0.9-2.4,1.6-3.8,2.1
			c-1.6,0.5-3.3,0.7-5,0.6L652.4,338z M655.1,322.3c-0.7,4.2-1.4,8.4-2.1,12.6l4.4,0.2c1.1,0.1,2.2-0.1,3.2-0.4
			c0.9-0.3,1.7-0.8,2.4-1.4c0.7-0.6,1.2-1.4,1.5-2.3c0.4-0.9,0.6-1.9,0.6-2.9c0-0.7,0-1.5-0.3-2.2c-0.2-0.6-0.5-1.2-1-1.7
			c-0.5-0.5-1.1-0.9-1.8-1.1c-0.8-0.3-1.7-0.5-2.5-0.5L655.1,322.3z"/>
		<line class="st1" x1="100.2" y1="272.7" x2="0.2" y2="272.7"/>
	</g>
</g>
</svg>
