<svg id="Layer_1" data-name="Layer 1" xmlns="http://www.w3.org/2000/svg" viewBox="0 0 1000 1000"><defs><style>.cls-1{fill:#fff;}.cls-2{stroke:#fff;stroke-linecap:round;stroke-miterlimit:10;stroke-width:5px;}</style></defs><title>BedaholicsLogoWebsite</title><path class="cls-1" d="M233.86,442.65l13.06-.73q12.56-.69,20.23,4.25t8.18,15.46q.78,15.53-13.8,20.93c12,2.72,18.14,9,18.61,18.65.82,16.88-9.37,25.8-30.56,27q-19.26,1.08-38.53,2.28l-.66-10.62q3-1.29,9-3.63-1.77-29-3.55-58l-9.53-3.09Q206,450,205.67,445,219.77,443.77,233.86,442.65Zm.83,14.42,1.2,20.77,7.16-.41q13.83-.76,13.23-12.12-.25-4.65-3.29-6.87a11.66,11.66,0,0,0-7.76-2Zm9.08,33.2-7.15.4L238,514.5l10.18-.58q6.38-.36,9.59-3.47a10.15,10.15,0,0,0,3-8.24q-.35-6.6-4.46-9.51C253.52,490.77,249.35,490,243.77,490.27Z"/><path class="cls-1" d="M349.61,494.21q-20.43.92-40.85,2,.81,7.56,5,11.54a13.62,13.62,0,0,0,10.43,3.73,37.7,37.7,0,0,0,9.64-1.8,42.14,42.14,0,0,0,7.87-3.18l2.89-1.58q2.82,4.8,5.63,9.6c-.87.76-2.1,1.75-3.69,3a55.33,55.33,0,0,1-9.63,4.95,39.39,39.39,0,0,1-14.21,3.45q-15.54.64-24.07-7.59t-9.31-24c-.51-10.84,2-19.6,7.56-26.27s13.53-10.23,23.86-10.65c9.09-.38,16.18,1.93,21.24,6.88S349.7,476.12,350,485C349.88,488.08,349.74,491.14,349.61,494.21Zm-29.54-22.49a10.6,10.6,0,0,0-8.07,3.77,16.08,16.08,0,0,0-3.49,9.33q11.1-.48,22.2-.92Q330.2,471.32,320.07,471.72Z"/><path class="cls-1" d="M429,520.48q-12.84.69-25.69,1.45-.65-3.23-1.27-6.45a25.4,25.4,0,0,1-18.29,8.22q-12.6.38-19.13-8t-7.08-23.88q-.6-17.37,7.93-26.9t25.93-10a26.82,26.82,0,0,1,8.09,1q-.21-7.77-.41-15.54l-10-2.18-.28-9.78q14.13-.9,28.27-1.7l1.86,81.73,9.88,2.23Q428.89,515.58,429,520.48Zm-28.3-18.55q-.42-15.66-.83-31.32-3.14-1.75-9.69-1.58-14.24.41-13.58,21.22.6,19.32,12.37,19a12.44,12.44,0,0,0,6.4-2,13.68,13.68,0,0,0,4.14-3.6Z"/><path class="cls-1" d="M501,519.47q-12.12.51-24.24,1.09-1.15-4-2.3-7.93c-.73.66-1.7,1.51-2.92,2.54a40.22,40.22,0,0,1-7,4.2,22.42,22.42,0,0,1-9.82,2.71q-8.92.15-14.05-4.77t-5.3-14.1c-.27-13.45,9.47-20.4,29.21-20.68l8.64-.12-.09-6.73q-.11-9.18-9.64-9.05a31.85,31.85,0,0,0-5.56.57,27,27,0,0,0-4.07,1l-1.23.39c-.57,2.66-1.15,5.32-1.72,8l-11.11.2q-.6-9-1.21-18.09,14.91-5.18,26.83-5.34,14.13-.18,20,5.21t6,18.73l.27,30.23,9.22,2.13C501,512.94,501,516.21,501,519.47Zm-47.95-18.41q.1,7.33,7.36,7.23a13,13,0,0,0,6.17-1.86,22.53,22.53,0,0,0,5-3.68l1.83-1.74q-.06-4.1-.1-8.2l-7,.1c-4.77.06-8.18.75-10.25,2A6.53,6.53,0,0,0,453.07,501.06Z"/><path class="cls-1" d="M506.22,426.43q14.16-.58,28.31-1.08,0,17.94,0,35.86c6.76-5.55,13.72-8.31,20.83-8.29q9.32,0,14.24,5.88t4.84,16.25q-.12,16.21-.23,32.43l8.57,3.12-.09,9.8q-16.53-.15-33.06-.19,0-4.89,0-9.79l6.39-2.92q0-14.87.1-29.73,0-9.79-8.13-9.82a14.48,14.48,0,0,0-6.43,1.65,25.26,25.26,0,0,0-5.19,3.24l-1.85,1.59q0,16.45,0,32.92l6.51,3.06c0,3.26,0,6.53,0,9.79q-17.15,0-34.29.09l-.06-9.79,9.81-3.11q-.15-34.38-.28-68.78l-10-2.39Z"/><path class="cls-1" d="M623.86,453.6q15,.24,22.95,9t7.57,24.58c-.24,10.94-3.42,19.51-9.47,25.75s-14.06,9.27-24,9.11c-20.8-.33-31.09-11.61-30.88-34.06q.16-16.39,9.29-25.54T623.86,453.6ZM623,467.66q-7.05-.12-10.4,4.37t-3.48,15.61Q609,498.17,612,503t9.75,5q6.75.11,10-4.6t3.49-16q.19-9.9-2.75-14.8T623,467.66Z"/><path class="cls-1" d="M663.19,427.82q14.4-.15,28.82-.22-1.2,41-2.39,82,5.79,1.69,11.56,3.41l-.3,9.78q-20-.63-39.92-1.1.12-4.89.23-9.79l9.89-2.81,1.77-68.76L663,437.61C663,434.35,663.11,431.08,663.19,427.82Z"/><path class="cls-1" d="M708.12,457.85q14.08,0,28.18,0l-2,53.2,8.47,3.39-.39,9.78q-18.18-.72-36.36-1.3.16-4.9.32-9.79l9.92-2.73,1.37-40-9.81-2.77C707.91,464.38,708,461.11,708.12,457.85Zm8.28-20.91a10.48,10.48,0,0,1,3.45-7.9,10.6,10.6,0,0,1,7.65-2.73q10.47.38,10.06,11.39a10.67,10.67,0,0,1-3.48,8,10.34,10.34,0,0,1-7.38,2.74c-3.4-.13-6-1.17-7.78-3.16S716.28,440.53,716.4,436.94Z"/><path class="cls-1" d="M802.23,507.33q2.81,5.34,5.6,10.7-12.44,9.78-26.84,9.09-15-.71-23.06-9.85t-7.4-24.8q.66-16.38,10-25.43t25.5-8.29a54.44,54.44,0,0,1,10.12,1.53,61.17,61.17,0,0,1,8.44,2.56l2.91,1.26q-.81,9.94-1.64,19.89l-11.1-.56q-.64-4.44-1.3-8.89a32.64,32.64,0,0,0-8.48-1.38q-6.93-.33-10.9,4.09t-4.37,13.58q-.47,10.4,3.16,16.07c2.41,3.79,6.15,5.79,11.22,6a24.74,24.74,0,0,0,4.68-.2,21.89,21.89,0,0,0,4.36-1.08c1.42-.5,2.52-.93,3.32-1.3s1.9-.93,3.29-1.68S802,507.48,802.23,507.33Z"/><path class="cls-1" d="M826,506.75l.51,8.61a35.71,35.71,0,0,0,10,1.79c6.46.37,9.81-1.63,10.08-6q.17-2.82-3-5a35.54,35.54,0,0,0-7.91-4,101.69,101.69,0,0,1-9.4-4,20.43,20.43,0,0,1-7.79-6.61,15.76,15.76,0,0,1-2.79-10.32q.57-10.76,8.14-15.44t18.5-4A66.71,66.71,0,0,1,853,463.26q5.7,1.26,9,2.32l3.16,1.18q-.63,6.09-1.63,18.29l-10.86-.67-1.38-8.05a23.1,23.1,0,0,0-8.08-1.7,9.89,9.89,0,0,0-6.15,1.3,5.36,5.36,0,0,0-2.48,4.45q-.16,2.82,3.12,5a40,40,0,0,0,7.94,3.9q4.65,1.74,9.34,3.93a20.28,20.28,0,0,1,7.83,6.42,15,15,0,0,1,2.76,10.11q-.66,10.38-8.67,15.71T836,530a92,92,0,0,1-10.72-1.28c-3.73-.65-6.6-1.24-8.62-1.75l-3-.9q.52-10,1.06-19.92Z"/><path class="cls-1" d="M75,462.64a4.2,4.2,0,0,0,3-.86,13.72,13.72,0,0,1,8.53-2.49c11.6,0,17.2,6.17,17.2,21.92h20c0-10.75,1.62-15.68,4.8-19.67s8.16-6,14.9-6c5.24,0,9.58,1.71,12.58,5.15s4.72,8.39,4.72,14.88v3a2.67,2.67,0,0,0,2.67,2.67h15.66a2.67,2.67,0,0,0,2.67-2.67v-3.9c0-32.44-12.69-48.67-38.52-48.67-14.84,0-24.71,8.93-29.83,26.77-4.74-15-15-22.46-30.83-22.46-10.73,0-18.78,3.71-24.21,11.14a39.39,39.39,0,0,0-6.17,13.41,4.32,4.32,0,0,0,3.65,5.37Z"/><path d="M160.38,495.21H74.65a1.83,1.83,0,0,1-1.83-1.83V475.2c0-.43,0-.85,0-1.27a1.85,1.85,0,0,0-1.6-1.73l-19.3-2.42a1.79,1.79,0,0,0-2,1.66v19.67l1.37,40.33A1.85,1.85,0,0,0,53,533.21H65.55a1.84,1.84,0,0,0,1.7-1.15l4.69-11.71a1.83,1.83,0,0,1,1.7-1.14h86.3a1.82,1.82,0,0,1,1.75,1.31c1.57,5.36,2.86,8.84,3.86,11.5a1.82,1.82,0,0,0,1.71,1.19H180a1.83,1.83,0,0,0,1.83-1.83V497a1.82,1.82,0,0,0-1.83-1.83Z"/><path class="cls-1" d="M865.43,529.24a3.25,3.25,0,0,1,.25-1.28,3,3,0,0,1,.69-1.05,3.64,3.64,0,0,1,1-.7,3.36,3.36,0,0,1,2.59,0,3.64,3.64,0,0,1,1,.7,3.29,3.29,0,0,1,1,2.33,3.19,3.19,0,0,1-1,2.33,3.42,3.42,0,0,1-1,.69,3.48,3.48,0,0,1-2.59,0,3.42,3.42,0,0,1-1-.69,3.06,3.06,0,0,1-.69-1A3.27,3.27,0,0,1,865.43,529.24Z"/><path class="cls-1" d="M890.64,530.29a11,11,0,0,1-2.06,1.33,9,9,0,0,1-2.2.71,15.36,15.36,0,0,1-2.53.2,8.71,8.71,0,0,1-3.48-.66,7.28,7.28,0,0,1-2.61-1.89,8.21,8.21,0,0,1-1.62-2.94,12.49,12.49,0,0,1-.56-3.84,15.6,15.6,0,0,1,.88-5.2,14,14,0,0,1,2.44-4.36,12,12,0,0,1,3.72-3,10,10,0,0,1,4.71-1.13,8.26,8.26,0,0,1,3.79.79,8.38,8.38,0,0,1,2.78,2.35l-1.73,2.05a3.13,3.13,0,0,1-.44.36,1,1,0,0,1-.56.16,1.08,1.08,0,0,1-.67-.22c-.21-.16-.45-.32-.71-.49a5.59,5.59,0,0,0-1-.5,4.9,4.9,0,0,0-3.93.45,6.49,6.49,0,0,0-2,1.92,10.32,10.32,0,0,0-1.37,3,13.69,13.69,0,0,0-.51,3.85,5.86,5.86,0,0,0,1.09,3.81,3.61,3.61,0,0,0,2.94,1.34,5.11,5.11,0,0,0,2.06-.36,7.17,7.17,0,0,0,1.39-.78l1-.79a1.52,1.52,0,0,1,1-.36,1.09,1.09,0,0,1,.51.14,2,2,0,0,1,.45.36l1.37,1.66A20.92,20.92,0,0,1,890.64,530.29Z"/><path class="cls-1" d="M903,532.53a9.23,9.23,0,0,1-3.44-.62,7.45,7.45,0,0,1-2.72-1.82,8.67,8.67,0,0,1-1.8-2.94,11.43,11.43,0,0,1-.65-4,15.68,15.68,0,0,1,.92-5.41,13.73,13.73,0,0,1,2.53-4.33,11.84,11.84,0,0,1,3.74-2.88,10.21,10.21,0,0,1,4.56-1.05,9.38,9.38,0,0,1,3.43.62,7.74,7.74,0,0,1,2.74,1.82,8.49,8.49,0,0,1,1.81,2.95,11.43,11.43,0,0,1,.65,4,15.09,15.09,0,0,1-.94,5.37,14,14,0,0,1-2.54,4.34,12.09,12.09,0,0,1-3.74,2.9A10.16,10.16,0,0,1,903,532.53Zm.48-4.14a4.16,4.16,0,0,0,2.44-.77,6.67,6.67,0,0,0,1.86-2.07,10.52,10.52,0,0,0,1.19-3,15.27,15.27,0,0,0,.42-3.62,6.9,6.9,0,0,0-.93-4,3.22,3.22,0,0,0-2.8-1.29,4.2,4.2,0,0,0-2.44.76,6.39,6.39,0,0,0-1.86,2.08,10.87,10.87,0,0,0-1.17,3,15.26,15.26,0,0,0-.42,3.64,7,7,0,0,0,.92,4A3.2,3.2,0,0,0,903.51,528.39Z"/><path class="cls-1" d="M916.85,532.21l2.72-22.39h2.73a2,2,0,0,1,1.31.39,1.51,1.51,0,0,1,.48,1.24v.07s0,.13,0,.29,0,.42,0,.77,0,.82-.06,1.45a11.23,11.23,0,0,1,3.27-3.42,6.8,6.8,0,0,1,3.68-1.12,4.1,4.1,0,0,1,3.26,1.37,6.73,6.73,0,0,1,1.38,4,11.92,11.92,0,0,1,3.48-4,7.2,7.2,0,0,1,4.15-1.3,4.68,4.68,0,0,1,3.87,1.69,7.59,7.59,0,0,1,1.37,4.87q0,.44,0,.93c0,.33,0,.66-.08,1l-1.68,14.24h-5.32q.43-3.71.74-6.29c.2-1.73.37-3.16.5-4.32s.23-2.06.31-2.71.12-1.16.16-1.52.06-.59.07-.72,0-.22,0-.29a3.21,3.21,0,0,0-.44-1.89,1.67,1.67,0,0,0-1.42-.57,3.27,3.27,0,0,0-1.61.43,5.4,5.4,0,0,0-1.49,1.27,9.52,9.52,0,0,0-1.31,2,17.61,17.61,0,0,0-1.06,2.71l-1.39,11.88h-5.3L930.78,518c0-.3.05-.59.07-.86a6.75,6.75,0,0,0,0-.75,3.22,3.22,0,0,0-.43-1.89,1.63,1.63,0,0,0-1.4-.57,3.37,3.37,0,0,0-1.66.45,5.76,5.76,0,0,0-1.52,1.32,10.85,10.85,0,0,0-1.3,2.09,18.05,18.05,0,0,0-1.06,2.76l-1.4,11.69Z"/><path class="cls-1" d="M331.13,562.33l-3,.13a1.16,1.16,0,0,1-.83-.23,1.39,1.39,0,0,1-.43-.66q-1-3.66-2-7.3l-12.32.54q-1.56,3.77-3.11,7.53a2,2,0,0,1-.55.69,1.42,1.42,0,0,1-.86.32l-3.08.14q6.69-15.42,13.48-30.83l4-.17Q326.81,547.4,331.13,562.33Zm-17.38-10.44,10.37-.46-3.33-12.35c-.11-.37-.21-.78-.33-1.23s-.23-1-.32-1.49q-.25.81-.54,1.53c-.18.48-.36.91-.52,1.28Q316.41,545.53,313.75,551.89Z"/><path class="cls-1" d="M364.19,543.86a19.84,19.84,0,0,1-.95,7.06,16.35,16.35,0,0,1-3.1,5.54,14.66,14.66,0,0,1-4.87,3.69,15.77,15.77,0,0,1-6.26,1.47l-10.43.41q1.26-15.15,2.55-30.31l10.47-.4a13.06,13.06,0,0,1,5.09.76,10.74,10.74,0,0,1,3.92,2.53,11.86,11.86,0,0,1,2.55,4A15.55,15.55,0,0,1,364.19,543.86Zm-4.06.22a13.42,13.42,0,0,0-.72-4.08,8.87,8.87,0,0,0-1.78-3,7.38,7.38,0,0,0-2.73-1.86,8.91,8.91,0,0,0-3.57-.56l-6.48.25q-1,12-2,23.9l6.45-.25a10.94,10.94,0,0,0,4.58-1.13,10.08,10.08,0,0,0,3.48-2.89,13,13,0,0,0,2.18-4.46A19,19,0,0,0,360.13,544.08Z"/><path class="cls-1" d="M397.7,542.82a19.8,19.8,0,0,1-1,7.06,16.6,16.6,0,0,1-3.14,5.52,14.53,14.53,0,0,1-4.9,3.65,15.79,15.79,0,0,1-6.27,1.43l-10.43.33,2.76-30.29,10.48-.32a12.8,12.8,0,0,1,5.08.8,10.75,10.75,0,0,1,3.9,2.55,11.9,11.9,0,0,1,2.53,4A15.54,15.54,0,0,1,397.7,542.82Zm-4.06.2a13.2,13.2,0,0,0-.7-4.09,8.66,8.66,0,0,0-1.76-3.06,7.19,7.19,0,0,0-2.71-1.88,8.66,8.66,0,0,0-3.56-.58l-6.48.2q-1.11,11.94-2.21,23.88l6.45-.2a10.93,10.93,0,0,0,4.59-1.1,10.19,10.19,0,0,0,3.51-2.86,13.19,13.19,0,0,0,2.2-4.44A19,19,0,0,0,393.64,543Z"/><path class="cls-1" d="M410,559.72l-4,.1q1.46-15.14,2.93-30.27l4-.1Q411.45,544.58,410,559.72Z"/><path class="cls-1" d="M433.69,556.14a12.44,12.44,0,0,0,2.46-.28,11.06,11.06,0,0,0,1.89-.61,6.94,6.94,0,0,0,1.39-.77c.38-.28.71-.54,1-.77l.71-.58a.88.88,0,0,1,.53-.24.63.63,0,0,1,.32.07.68.68,0,0,1,.21.17l1.4,1.68a13.67,13.67,0,0,1-10.49,4.73,11.88,11.88,0,0,1-4.87-.87,10.21,10.21,0,0,1-3.69-2.63,12.05,12.05,0,0,1-2.37-4.09,16.52,16.52,0,0,1-.91-5.27,20.32,20.32,0,0,1,1.06-7.23,17.24,17.24,0,0,1,3.26-5.68,15.09,15.09,0,0,1,11.21-5.17,14.14,14.14,0,0,1,2.93.22,10.3,10.3,0,0,1,2.41.76,9.43,9.43,0,0,1,2,1.23,12.69,12.69,0,0,1,1.67,1.61l-1.32,1.67a1.78,1.78,0,0,1-.38.35,1,1,0,0,1-.53.15,1.21,1.21,0,0,1-.81-.41,8.42,8.42,0,0,0-3.07-1.78,8.94,8.94,0,0,0-3-.36,10.92,10.92,0,0,0-4.58,1.07,10.8,10.8,0,0,0-3.65,2.87,13.42,13.42,0,0,0-2.37,4.47,17.6,17.6,0,0,0-.77,5.83,13.11,13.11,0,0,0,.7,4.18,9.67,9.67,0,0,0,1.76,3.11,7.56,7.56,0,0,0,2.63,1.94A7.84,7.84,0,0,0,433.69,556.14Z"/><path class="cls-1" d="M474.12,528.38c-.12,1.1-.25,2.21-.38,3.31l-9,.11q-1.47,13.46-2.93,26.92l-3.92.06q1.44-13.47,2.91-26.93l-9,.14c.11-1.11.23-2.21.35-3.32Q463.15,528.5,474.12,528.38Z"/><path class="cls-1" d="M499.17,531.39l-13.29.1c-.39,3.39-.79,6.79-1.18,10.18l10.74-.08c-.13,1-.25,2.07-.38,3.1l-10.71.08-1.2,10.5,13.27-.1c-.13,1.07-.26,2.14-.38,3.2l-17.22.15q1.71-15.12,3.45-30.22,8.64-.09,17.28-.13C499.42,529.24,499.3,530.32,499.17,531.39Z"/><path class="cls-1" d="M531.75,541.07a19.66,19.66,0,0,1-1.2,7,16.25,16.25,0,0,1-3.3,5.44,14.57,14.57,0,0,1-5,3.51,16,16,0,0,1-6.31,1.25l-10.43,0q1.8-15.09,3.62-30.2l10.47,0a12.79,12.79,0,0,1,5.06.94,10.68,10.68,0,0,1,3.83,2.66,12,12,0,0,1,2.41,4.11A15.32,15.32,0,0,1,531.75,541.07Zm-4.06.08a13.47,13.47,0,0,0-.58-4.11,8.78,8.78,0,0,0-1.67-3.1,7.29,7.29,0,0,0-2.66-2,8.7,8.7,0,0,0-3.54-.68h-6.49q-1.44,11.91-2.88,23.81h6.45a11.07,11.07,0,0,0,4.62-1,10.12,10.12,0,0,0,3.58-2.76,12.89,12.89,0,0,0,2.33-4.38A18.86,18.86,0,0,0,527.69,541.15Z"/><path class="cls-1" d="M574.33,528.33c-.15,1.1-.31,2.21-.46,3.31l-9-.09q-1.77,13.43-3.51,26.86l-3.92,0Q559.22,545,561,531.52l-9,0,.42-3.31Q563.36,528.22,574.33,528.33Z"/><path class="cls-1" d="M604.54,541.69a20,20,0,0,1-.63,4.86,18.85,18.85,0,0,1-1.62,4.22,16.07,16.07,0,0,1-2.48,3.47,15,15,0,0,1-7.06,4.23,15.74,15.74,0,0,1-4.32.53,12.09,12.09,0,0,1-5-1,11,11,0,0,1-3.76-2.79,12,12,0,0,1-2.36-4.21,16.22,16.22,0,0,1-.78-5.32,20.07,20.07,0,0,1,1.28-7.07,16.94,16.94,0,0,1,3.4-5.54,15.1,15.1,0,0,1,11.43-4.8,12.09,12.09,0,0,1,5,1.07,11.05,11.05,0,0,1,3.77,2.83,12.25,12.25,0,0,1,2.35,4.24A16.07,16.07,0,0,1,604.54,541.69Zm-4.06,0a13.7,13.7,0,0,0-.52-4.17,9.34,9.34,0,0,0-1.64-3.19,7.56,7.56,0,0,0-2.64-2.07,8.52,8.52,0,0,0-3.54-.76,10.57,10.57,0,0,0-4.61.94,10.24,10.24,0,0,0-3.64,2.81,13.49,13.49,0,0,0-2.4,4.44,19.11,19.11,0,0,0-.91,5.86,13.57,13.57,0,0,0,.54,4.16,9.39,9.39,0,0,0,1.64,3.18,7.47,7.47,0,0,0,2.62,2,8.61,8.61,0,0,0,3.52.75,10.57,10.57,0,0,0,4.63-.93,10.21,10.21,0,0,0,3.63-2.78,13.7,13.7,0,0,0,2.4-4.43A19.29,19.29,0,0,0,600.48,541.71Z"/><path class="cls-1" d="M641.86,534.18a2.32,2.32,0,0,1-.46.44.85.85,0,0,1-.51.15,1.19,1.19,0,0,1-.75-.39,11.27,11.27,0,0,0-1-.83,8.63,8.63,0,0,0-1.5-.83,5.76,5.76,0,0,0-2.21-.42,6.61,6.61,0,0,0-2.43.36,5.31,5.31,0,0,0-1.81,1.11,4.72,4.72,0,0,0-1.15,1.67,5.68,5.68,0,0,0-.43,2.08,3.13,3.13,0,0,0,.47,1.85,4.66,4.66,0,0,0,1.3,1.32,10.27,10.27,0,0,0,1.87,1l2.15.89c.73.3,1.44.64,2.15,1a7.65,7.65,0,0,1,1.86,1.35,6.17,6.17,0,0,1,1.28,1.9,6.24,6.24,0,0,1,.44,2.67,11.12,11.12,0,0,1-.83,4,9.93,9.93,0,0,1-5.6,5.48,11,11,0,0,1-4.42.74,10.59,10.59,0,0,1-4.79-1.17,9.88,9.88,0,0,1-3.43-2.94l1.43-1.85a1.53,1.53,0,0,1,.43-.37,1.18,1.18,0,0,1,.55-.14,1.29,1.29,0,0,1,.86.5,12.93,12.93,0,0,0,1.16,1.07,8.23,8.23,0,0,0,1.75,1.1,6.51,6.51,0,0,0,2.62.53,7.18,7.18,0,0,0,2.64-.41,5.72,5.72,0,0,0,2-1.24,5.61,5.61,0,0,0,1.3-1.94,7,7,0,0,0,.5-2.52,3.47,3.47,0,0,0-.46-1.94,4.57,4.57,0,0,0-1.3-1.33,10.35,10.35,0,0,0-1.85-1l-2.14-.84a22.62,22.62,0,0,1-2.13-.95,7.18,7.18,0,0,1-1.84-1.32,5.85,5.85,0,0,1-1.3-1.95,6.94,6.94,0,0,1-.45-2.81,9.57,9.57,0,0,1,.76-3.55,8.93,8.93,0,0,1,2-3,9.37,9.37,0,0,1,3.14-2,10.52,10.52,0,0,1,4.13-.69,9.71,9.71,0,0,1,4.18,1,8.36,8.36,0,0,1,3,2.49Z"/><path class="cls-1" d="M653,556.65l12,.34c-.17,1.1-.33,2.21-.5,3.31l-15.88-.44q2.25-15,4.53-30.07l4,.11Q655,543.26,653,556.65Z"/><path class="cls-1" d="M694.18,534.29q-6.64-.24-13.28-.45-.81,5.05-1.6,10.13,5.37.16,10.73.36c-.16,1-.34,2-.5,3.08l-10.71-.36q-.83,5.22-1.63,10.44,6.63.21,13.26.45l-.51,3.18-17.21-.57q2.32-15,4.69-30,8.64.29,17.28.59C694.52,532.15,694.35,533.22,694.18,534.29Z"/><path class="cls-1" d="M721,535.32l-13.28-.53q-.84,5.07-1.66,10.12l10.73.42c-.17,1-.35,2-.52,3.08L705.58,548l-1.68,10.44,13.25.51-.53,3.19q-8.6-.36-17.21-.67,2.43-15,4.87-30,8.64.31,17.27.68C721.37,533.19,721.19,534.25,721,535.32Z"/><path class="cls-1" d="M732.26,551.44l-1.89,11.26-3.91-.16q2.47-15,5-30l8.37.37a13.55,13.55,0,0,1,4.17.76,7.87,7.87,0,0,1,2.86,1.75,6.66,6.66,0,0,1,1.61,2.61,9,9,0,0,1,.41,3.31,11.65,11.65,0,0,1-1,4.33,9.45,9.45,0,0,1-2.43,3.31,10.34,10.34,0,0,1-3.77,2.07,14.29,14.29,0,0,1-5,.59Zm2.63-15.65q-1,6.27-2.12,12.55l4.4.2a8.68,8.68,0,0,0,3.19-.4,6.43,6.43,0,0,0,2.37-1.43,6.59,6.59,0,0,0,1.53-2.27,8.84,8.84,0,0,0,.62-2.93,6.25,6.25,0,0,0-.26-2.21,4.48,4.48,0,0,0-1-1.7,4.9,4.9,0,0,0-1.78-1.13,8.19,8.19,0,0,0-2.54-.49Z"/><line class="cls-2" x1="178.5" y1="490.5" x2="78.5" y2="490.5"/></svg>